<?xml version="1.0" standalone="no"?>
<!DOCTYPE svg PUBLIC "-//W3C//DTD SVG 20010904//EN"
 "http://www.w3.org/TR/2001/REC-SVG-20010904/DTD/svg10.dtd">
<svg version="1.0" xmlns="http://www.w3.org/2000/svg"
 width="600.000000pt" height="600.000000pt" viewBox="0 0 600.000000 600.000000"
 preserveAspectRatio="xMidYMid meet">
<metadata>
Created by potrace 1.14, written by Peter Selinger 2001-2017
</metadata>
<g transform="translate(0.000000,600.000000) scale(0.100000,-0.100000)"
fill="#000000" stroke="none">
<path d="M0 4270 c0 -1643 1 -1729 18 -1723 9 3 22 9 27 13 6 4 32 10 58 14
90 11 197 56 246 103 24 24 46 43 49 43 2 0 16 9 32 20 15 11 40 24 56 30 27
9 26 8 -11 -25 -32 -28 -36 -35 -20 -34 11 0 31 6 45 14 33 19 108 19 180 0
32 -8 76 -14 99 -13 23 1 47 -4 53 -10 16 -16 87 -15 178 2 41 8 146 19 233
25 86 6 169 14 184 17 14 4 44 25 65 46 40 40 40 40 18 55 -12 8 -19 21 -16
29 9 25 -26 31 -199 38 -206 8 -463 -18 -635 -64 -79 -21 -52 -1 33 25 121 36
217 55 327 63 106 8 399 8 472 0 27 -3 45 -2 42 3 -3 5 -9 9 -15 9 -5 0 -18 9
-28 19 -19 19 -18 19 26 26 63 9 73 14 84 42 5 13 17 26 26 30 10 4 30 17 46
29 15 13 34 21 43 17 8 -3 25 4 37 15 12 12 39 22 61 24 38 3 41 6 56 51 9 26
27 55 39 63 13 10 20 22 16 31 -6 18 13 36 70 64 66 33 89 47 102 65 12 16 17
16 80 -5 38 -11 83 -21 101 -21 22 0 32 -5 32 -15 0 -17 26 -20 35 -4 5 7 22
8 49 3 38 -7 59 -7 170 -4 35 1 46 8 105 73 100 109 130 137 147 137 18 0 44
24 44 41 0 7 12 37 27 68 19 42 26 71 26 116 -1 66 32 145 85 207 48 55 65 95
35 84 -15 -6 -15 -5 -1 11 8 10 24 39 34 65 21 53 34 61 34 23 0 -41 34 -28
45 18 6 21 4 27 -9 27 -9 0 -16 4 -16 9 0 13 26 32 33 24 4 -3 13 0 21 6 12
10 15 6 18 -26 l3 -38 17 25 c17 25 26 61 27 113 1 20 6 27 20 27 15 0 22 10
28 43 7 32 16 47 40 62 18 11 35 29 39 40 3 11 20 48 36 81 l29 62 35 -11 c24
-7 41 -23 59 -53 14 -23 25 -49 25 -58 0 -8 13 -30 29 -48 15 -18 36 -48 45
-65 12 -25 22 -32 41 -31 14 1 25 8 25 15 0 7 4 13 9 13 17 0 9 -59 -11 -76
-10 -10 -18 -13 -18 -8 -1 5 -7 -6 -16 -25 -11 -25 -13 -54 -8 -105 4 -57 1
-84 -15 -135 -12 -35 -18 -67 -16 -72 3 -4 3 -37 -1 -72 -6 -55 -12 -70 -45
-108 -21 -24 -39 -51 -39 -59 0 -8 -7 -28 -15 -43 -8 -15 -17 -45 -21 -65 -3
-20 -11 -51 -17 -69 -9 -28 -7 -40 15 -85 17 -34 24 -63 21 -80 -3 -16 1 -36
11 -50 9 -12 16 -30 16 -39 0 -9 25 -38 55 -64 45 -38 61 -46 83 -42 37 7 127
-32 170 -74 33 -33 89 -70 162 -106 19 -10 40 -23 45 -30 6 -6 19 -13 30 -15
14 -2 20 -12 21 -30 1 -32 26 -73 53 -88 13 -6 17 -17 14 -30 -3 -12 1 -22 10
-26 13 -5 13 -10 -4 -39 l-20 -33 34 -21 c19 -12 41 -21 49 -21 22 0 29 -11
17 -26 -16 -20 -3 -48 31 -62 17 -8 30 -19 29 -25 -4 -30 3 -37 34 -37 17 -1
42 -9 55 -20 l23 -19 -32 -32 c-23 -23 -28 -33 -19 -39 13 -8 10 -47 -4 -82
-6 -12 1 -25 22 -45 126 -121 166 -140 310 -149 53 -3 119 -10 146 -14 27 -4
57 -5 68 -2 17 4 19 0 16 -29 -3 -31 -1 -34 21 -31 13 1 34 -6 45 -17 12 -11
55 -28 96 -39 157 -41 236 -65 270 -81 l35 -16 -59 -3 c-32 -2 -69 -10 -81
-18 -17 -11 -24 -12 -27 -3 -5 16 -98 25 -98 9 0 -5 13 -9 28 -8 47 3 58 -11
29 -38 -14 -13 -37 -26 -51 -30 -14 -3 -26 -9 -26 -11 0 -12 36 -32 58 -33 12
0 22 -4 22 -10 0 -5 -4 -10 -9 -10 -5 0 -8 -11 -8 -25 0 -37 -21 -55 -64 -55
-26 0 -44 -7 -58 -22 l-20 -21 27 -28 c27 -28 61 -33 91 -15 20 12 28 -4 9
-18 -14 -10 -15 -15 -5 -26 10 -10 9 -12 -5 -7 -22 8 -23 -6 -3 -23 21 -18 64
-4 77 25 12 27 20 29 108 25 30 -1 66 3 80 9 14 5 19 10 12 10 -7 1 -11 5 -8
10 3 5 19 8 36 7 23 -2 30 2 30 16 0 13 8 18 29 18 17 0 33 5 36 11 4 6 13 8
20 5 24 -9 83 14 99 38 15 23 18 24 114 19 69 -4 101 -2 106 6 4 6 15 11 25
11 11 0 18 7 17 17 -1 10 10 19 32 25 31 8 32 11 32 59 0 35 -3 48 -12 43 -8
-5 -9 0 -3 17 4 13 10 52 12 87 4 49 2 62 -9 60 -15 -3 -12 35 3 40 23 9 5 22
-30 22 -22 0 -43 5 -46 11 -4 6 -13 8 -20 5 -14 -5 -39 17 -30 26 3 2 25 3 50
2 38 -3 45 0 45 16 0 25 21 71 30 65 4 -2 5 7 2 22 -4 21 -6 23 -14 9 -5 -9
-13 -16 -18 -16 -13 0 -13 37 0 45 6 3 10 15 10 27 0 15 -4 18 -17 14 -9 -4
-20 -1 -24 6 -10 16 -39 -8 -39 -33 0 -10 -4 -21 -10 -24 -6 -3 -10 -3 -10 2
0 12 24 75 37 99 7 12 9 24 6 28 -8 8 -33 -13 -33 -29 0 -15 -28 -40 -36 -33
-3 3 1 12 9 19 15 16 30 102 16 94 -11 -8 -46 28 -41 43 2 6 10 8 19 5 11 -4
14 -2 9 5 -5 8 -2 10 8 6 11 -4 16 0 16 15 0 12 4 21 9 21 5 0 32 28 60 62 48
60 62 88 42 88 -11 0 -91 -105 -91 -120 0 -11 -13 -14 -23 -4 -6 7 20 46 87
127 26 33 36 51 29 58 -7 7 -14 6 -22 -3 -7 -7 -35 -38 -62 -68 -39 -42 -47
-47 -33 -22 10 17 22 32 26 32 4 0 8 7 8 15 0 8 9 19 20 25 11 6 20 17 20 25
0 8 8 18 17 24 10 5 15 12 11 16 -3 4 -18 -1 -32 -10 -14 -10 -26 -13 -26 -7
0 6 4 14 10 17 15 9 12 25 -5 25 -11 0 -15 -11 -15 -38 0 -28 -7 -45 -25 -62
-25 -23 -25 -23 -25 -2 0 12 9 26 20 32 23 12 27 40 5 40 -7 0 -19 -8 -24 -17
-6 -10 -11 -14 -11 -10 0 5 9 20 20 34 40 51 15 60 -30 11 -23 -26 -29 -29
-30 -15 0 10 7 20 15 23 18 7 20 34 2 34 -7 0 -18 -9 -24 -20 -7 -10 -22 -24
-34 -31 l-22 -11 22 31 c12 17 27 33 32 37 6 3 53 6 105 5 l94 -2 0 750 c0
412 -3 751 -7 753 -7 3 -69 73 -134 153 -13 16 -45 50 -71 75 -32 31 -56 68
-78 120 -17 41 -34 81 -37 88 -3 6 2 12 10 12 8 0 18 -8 22 -17 6 -16 10 -14
31 12 18 23 24 26 24 12 0 -9 4 -25 9 -35 5 -9 14 -29 21 -43 16 -35 63 -89
77 -89 9 0 8 11 -2 40 -8 22 -13 41 -12 43 2 3 -29 80 -48 120 -8 15 -12 27
-9 27 14 0 45 -43 77 -110 20 -41 50 -90 67 -109 16 -18 30 -42 30 -52 0 -10
5 -21 11 -24 6 -4 8 -14 5 -22 -3 -8 -1 -11 4 -8 14 8 13 420 0 446 -7 13 -7
19 0 19 7 0 10 150 10 460 l0 460 -3000 0 -3000 0 0 -1730z m4930 1471 c0 -12
-21 -19 -37 -13 -22 8 -14 22 12 22 14 0 25 -4 25 -9z m-315 -81 c3 -5 1 -10
-4 -10 -6 0 -11 5 -11 10 0 6 2 10 4 10 3 0 8 -4 11 -10z m505 -52 c0 6 13 -1
29 -16 38 -35 111 -132 111 -148 0 -7 5 -14 12 -16 19 -7 -1 -28 -26 -28 -32
0 -77 53 -119 141 -38 79 -47 108 -22 75 8 -11 15 -15 15 -8z m795 -428 c3 -5
1 -10 -4 -10 -6 0 -11 5 -11 10 0 6 2 10 4 10 3 0 8 -4 11 -10z m-285 -224 c0
-9 -4 -16 -10 -16 -5 0 -10 9 -10 19 0 11 -4 23 -10 26 -5 3 -10 13 -10 22 0
11 6 8 20 -10 11 -14 20 -32 20 -41z m18 -154 c17 -38 32 -74 32 -80 0 -23
-29 0 -46 36 -9 20 -23 45 -31 54 -14 16 -10 58 5 58 4 0 22 -31 40 -68z m-95
-24 c20 -23 37 -50 37 -60 0 -10 12 -46 26 -79 25 -60 27 -93 3 -47 -6 12 -31
53 -55 89 -56 86 -80 139 -61 139 8 0 30 -19 50 -42z m-107 -25 c10 -21 34
-56 52 -79 17 -23 32 -46 32 -51 0 -6 14 -29 30 -51 17 -23 30 -46 30 -51 0
-14 128 -127 193 -171 20 -14 37 -30 37 -37 0 -6 6 -14 13 -17 6 -3 1 -3 -13
0 -14 4 -28 11 -31 17 -4 5 -12 6 -18 2 -27 -16 -301 254 -301 297 0 23 -30
99 -47 119 -14 17 -18 59 -5 59 5 0 17 -17 28 -37z m-1268 -35 c-14 -18 -53
-73 -88 -121 -35 -49 -72 -94 -82 -100 -10 -7 -35 -36 -55 -65 -20 -28 -38
-50 -40 -48 -6 6 38 76 48 76 5 0 9 5 9 12 0 6 19 36 43 67 23 30 48 64 55 76
13 19 13 19 8 0 -6 -19 -6 -20 9 -1 8 10 12 23 9 28 -3 5 -1 7 4 6 5 -2 29 21
52 50 45 56 68 73 28 20z m1542 -77 c0 -9 -7 -3 -15 13 -19 36 -19 47 0 22 8
-11 15 -27 15 -35z m-310 -11 c0 -5 -2 -10 -4 -10 -3 0 -8 5 -11 10 -3 6 -1
10 4 10 6 0 11 -4 11 -10z m-1617 -81 c-3 -61 -26 -151 -40 -156 -24 -9 -25 3
-2 42 18 30 20 41 11 56 -15 23 -15 40 -2 74 14 36 35 26 33 -16z m751 11 c-5
-5 -46 -27 -89 -48 -44 -22 -118 -64 -165 -94 -106 -68 -110 -70 -110 -65 0 3
36 28 81 57 44 28 78 57 76 63 -2 7 38 29 97 54 105 43 127 50 110 33z m1246
-42 c0 -21 -19 -4 -29 25 l-11 32 20 -25 c11 -14 20 -28 20 -32z m-405 -38 c3
-5 2 -10 -4 -10 -5 0 -13 5 -16 10 -3 6 -2 10 4 10 5 0 13 -4 16 -10z m-1225
-96 c-8 -8 -23 -20 -34 -25 -13 -6 -10 0 9 15 34 29 43 33 25 10z m-11 -58
c-3 -3 -22 -17 -44 -31 l-40 -26 33 31 c18 16 37 30 44 30 6 0 9 -2 7 -4z
m1191 -83 c0 -7 -4 -13 -10 -13 -5 0 -10 6 -10 14 0 8 -3 23 -6 33 -5 16 -4
16 10 -1 9 -11 16 -26 16 -33z m-3169 -203 c-50 -64 -65 -109 -58 -177 5 -43
13 -64 43 -100 95 -116 205 -118 306 -4 59 66 72 103 65 184 -3 37 -3 67 0 67
15 0 65 -46 79 -73 32 -61 -6 -198 -73 -258 -71 -64 -136 -79 -235 -54 -172
44 -268 145 -268 280 0 108 60 183 148 185 l32 0 -39 -50z m199 -91 c0 -11
-24 -39 -34 -39 -8 0 -7 35 1 43 10 11 33 8 33 -4z m280 -179 c0 -5 -5 -10
-11 -10 -5 0 -7 5 -4 10 3 6 8 10 11 10 2 0 4 -4 4 -10z m0 -30 c0 -19 -43
-91 -60 -100 -32 -17 -29 1 8 56 34 51 52 66 52 44z m1124 -28 c3 -5 -4 -23
-15 -41 -27 -45 -35 -118 -20 -189 10 -44 23 -69 56 -107 l43 -49 69 0 c57 -1
75 4 108 26 63 41 84 69 101 139 14 58 14 70 1 122 -8 31 -12 59 -7 62 13 8
62 -37 76 -71 21 -51 17 -122 -10 -179 -47 -100 -121 -141 -239 -133 -40 3
-85 13 -102 22 -16 9 -42 16 -56 16 -34 0 -113 73 -124 115 -5 17 -9 62 -9
102 -1 80 14 109 74 151 36 24 46 27 54 14z m136 -117 c-7 -8 -16 -15 -21 -15
-13 0 -11 24 3 38 18 18 35 -3 18 -23z m1754 -84 c3 -5 17 -8 31 -8 14 0 36
-10 48 -21 12 -11 34 -25 50 -31 15 -6 27 -14 27 -19 0 -5 -42 -14 -92 -20
-159 -20 -252 -32 -283 -38 -75 -14 -139 -13 -156 2 -22 20 -21 54 1 46 12 -4
12 -2 3 8 -9 10 -8 16 3 27 22 22 69 34 189 48 139 16 172 17 179 6z m-4441
-548 c-7 -2 -19 -2 -25 0 -7 3 -2 5 12 5 14 0 19 -2 13 -5z m4547 -42 c0 -6
-4 -13 -10 -16 -5 -3 -10 1 -10 9 0 9 5 16 10 16 6 0 10 -4 10 -9z m-40 -51
c-6 -11 -13 -20 -16 -20 -2 0 0 9 6 20 6 11 13 20 16 20 2 0 0 -9 -6 -20z m63
-75 c-5 -13 -23 -22 -23 -11 0 15 14 35 21 31 4 -3 6 -12 2 -20z m-43 5 c0 -5
-4 -10 -10 -10 -5 0 -10 5 -10 10 0 6 5 10 10 10 6 0 10 -4 10 -10z m58 -58
c-7 -18 -16 -32 -20 -32 -11 0 -10 7 8 41 20 39 27 33 12 -9z m-51 -14 c-3 -8
-6 -5 -6 6 -1 11 2 17 5 13 3 -3 4 -12 1 -19z m84 -9 c-5 -13 -10 -19 -10 -12
-1 15 10 45 15 40 3 -2 0 -15 -5 -28z m-30 -62 c-8 -8 -11 -7 -11 4 0 20 13
34 18 19 3 -7 -1 -17 -7 -23z m-31 13 c0 -5 -5 -10 -11 -10 -5 0 -7 5 -4 10 3
6 8 10 11 10 2 0 4 -4 4 -10z m78 -10 c-7 -11 -16 -20 -19 -20 -4 0 -5 9 -2
20 3 11 12 20 19 20 12 0 12 -4 2 -20z m1 -39 c9 -6 11 -15 6 -27 -8 -18 -9
-17 -12 3 -3 14 -9 20 -19 16 -8 -3 -14 0 -14 6 0 13 20 14 39 2z m-69 -23 c0
-4 -6 -8 -14 -8 -8 0 -21 -3 -30 -6 -10 -4 -16 -1 -16 8 0 10 11 15 30 15 17
0 30 -4 30 -9z m6 -64 c-5 -13 -10 -14 -18 -6 -8 8 -17 8 -30 1 -22 -12 -34
-6 -23 11 4 7 18 10 31 7 14 -2 27 0 30 5 9 15 17 1 10 -18z m45 -71 c-12 -20
-14 -14 -5 12 4 9 9 14 11 11 3 -2 0 -13 -6 -23z m-81 7 c0 -5 -7 -10 -16 -10
-8 0 -12 5 -9 10 3 6 10 10 16 10 5 0 9 -4 9 -10z m40 0 c0 -5 -4 -10 -9 -10
-6 0 -13 5 -16 10 -3 6 1 10 9 10 9 0 16 -4 16 -10z m-15 -59 c3 -5 1 -12 -5
-16 -5 -3 -10 1 -10 9 0 18 6 21 15 7z m31 -28 c-11 -11 -19 6 -11 24 8 17 8
17 12 0 3 -10 2 -21 -1 -24z m109 -71 c-5 -14 -7 -14 -15 -2 -5 9 -4 20 3 28
14 17 22 0 12 -26z m-65 -57 c0 -8 -9 -15 -20 -15 -11 0 -20 5 -20 11 0 5 4 8
9 4 5 -3 12 -1 16 5 9 14 15 12 15 -5z m90 8 c0 -14 -19 -38 -25 -32 -8 8 5
39 16 39 5 0 9 -3 9 -7z m-110 -159 c0 -8 -5 -12 -10 -9 -6 4 -8 11 -5 16 9
14 15 11 15 -7z m40 12 c0 -3 -4 -8 -10 -11 -5 -3 -10 -1 -10 4 0 6 5 11 10
11 6 0 10 -2 10 -4z m66 -33 c-11 -11 -17 4 -9 23 7 18 8 18 11 1 2 -10 1 -21
-2 -24z m28 -50 c-7 -25 -45 -35 -76 -18 -15 7 -28 8 -39 2 -19 -12 -76 0 -63
13 5 5 37 11 71 14 51 4 64 2 72 -11 7 -14 10 -13 21 6 14 27 21 24 14 -6z
m-49 -63 c4 -6 14 -9 22 -8 9 2 18 -2 20 -8 6 -16 -47 -24 -69 -11 -10 7 -18
17 -18 24 0 15 36 17 45 3z m-455 -290 c0 -5 -4 -10 -10 -10 -5 0 -10 5 -10
10 0 6 5 10 10 10 6 0 10 -4 10 -10z m-265 -80 c3 -6 -1 -7 -9 -4 -18 7 -21
14 -7 14 6 0 13 -4 16 -10z"/>
<path d="M2848 3012 c-55 -5 -48 -25 25 -72 88 -56 107 -52 85 16 -15 43 -50
61 -110 56z"/>
<path d="M3207 2902 c-31 -32 -36 -56 -9 -48 9 3 38 8 63 11 68 10 80 21 49
45 -35 28 -71 25 -103 -8z"/>
<path d="M5985 2880 c-3 -5 -1 -10 4 -10 6 0 11 5 11 10 0 6 -2 10 -4 10 -3 0
-8 -4 -11 -10z"/>
<path d="M5973 2661 c-13 -16 -23 -33 -23 -37 0 -4 -9 -18 -21 -30 -12 -12
-19 -28 -17 -34 6 -20 90 88 86 111 -3 19 -5 18 -25 -10z"/>
<path d="M380 2670 c0 -5 7 -10 16 -10 8 0 12 5 9 10 -3 6 -10 10 -16 10 -5 0
-9 -4 -9 -10z"/>
<path d="M5976 2579 c-18 -31 -18 -31 3 -20 11 7 21 21 21 31 0 27 -3 25 -24
-11z"/>
<path d="M2980 2555 c0 -8 5 -15 10 -15 6 0 10 7 10 15 0 8 -4 15 -10 15 -5 0
-10 -7 -10 -15z"/>
<path d="M5920 2501 c0 -6 5 -13 10 -16 6 -3 10 1 10 9 0 9 -4 16 -10 16 -5 0
-10 -4 -10 -9z"/>
<path d="M5930 2425 c0 -8 5 -15 10 -15 6 0 10 7 10 15 0 8 -4 15 -10 15 -5 0
-10 -7 -10 -15z"/>
<path d="M5980 2420 c0 -5 5 -10 10 -10 6 0 10 5 10 10 0 6 -4 10 -10 10 -5 0
-10 -4 -10 -10z"/>
<path d="M5991 2233 c-1 -13 -5 -23 -11 -23 -5 0 -10 -7 -10 -15 0 -8 4 -15
10 -15 12 0 24 44 17 62 -3 7 -6 3 -6 -9z"/>
<path d="M1460 2049 c-36 -11 -85 -28 -110 -37 -25 -9 -57 -17 -72 -18 -15 -1
-57 -13 -93 -28 -36 -14 -71 -26 -79 -26 -20 0 -184 -87 -237 -126 -26 -19
-54 -34 -63 -34 -9 0 -34 -11 -54 -25 -21 -14 -56 -27 -78 -29 -21 -2 -53 -10
-71 -17 -38 -15 -52 -6 -35 21 7 11 12 24 12 28 0 8 -68 1 -100 -11 -8 -3 -31
-8 -50 -11 -27 -4 -31 -3 -18 5 22 12 24 39 4 39 -8 0 -21 -7 -30 -15 -19 -19
-45 -19 -52 0 -7 17 -49 20 -103 6 -20 -5 -63 -15 -96 -21 -33 -6 -77 -16 -97
-21 l-38 -10 0 -204 c0 -113 4 -205 8 -205 4 0 12 4 17 9 6 5 34 16 63 26 67
21 152 13 152 -15 0 -16 4 -17 41 -7 37 9 44 8 55 -8 8 -10 14 -30 14 -43 0
-21 4 -24 25 -20 29 6 32 -8 8 -35 -15 -15 -15 -19 -3 -17 27 4 41 0 35 -10
-4 -6 -10 -8 -15 -5 -11 7 -41 -5 -35 -15 2 -4 -7 -18 -20 -30 l-25 -23 0 21
c0 12 5 22 11 22 5 0 8 4 4 10 -3 5 -12 7 -20 3 -9 -3 -15 1 -15 11 0 9 -8 16
-20 16 -11 0 -20 -4 -20 -10 0 -20 -18 -9 -22 14 -4 17 -1 23 9 19 15 -6 18
23 3 32 -20 12 -86 -15 -100 -40 -8 -14 -31 -36 -52 -47 -21 -12 -38 -27 -38
-33 0 -6 -13 -26 -30 -45 l-29 -35 -1 -527 0 -528 325 0 325 0 -7 43 c-11 70
-9 249 4 292 6 22 22 74 33 115 35 121 46 140 77 141 58 3 104 -10 156 -44 14
-9 35 -17 47 -17 11 0 28 -9 37 -20 10 -11 26 -20 36 -20 30 0 57 -19 57 -41
0 -11 6 -19 13 -18 6 1 23 -3 37 -9 14 -6 42 -14 63 -17 27 -4 41 -13 49 -31
14 -31 30 -26 40 11 8 31 2 64 -18 103 -7 14 -10 31 -7 39 4 11 -4 14 -42 12
-43 -3 -51 0 -75 29 -18 22 -35 32 -54 32 -15 0 -46 9 -68 20 -23 11 -50 20
-60 20 -10 0 -18 6 -18 14 0 12 -13 17 -86 30 -12 2 -36 12 -55 22 -48 24
-128 44 -135 33 -3 -5 -14 -9 -24 -9 -25 0 -37 72 -19 115 7 17 15 61 18 100
6 64 8 71 35 85 16 8 46 30 65 48 41 38 69 47 114 38 97 -18 119 -25 136 -40
9 -9 23 -16 29 -16 7 0 29 -9 49 -20 21 -11 46 -20 56 -20 10 0 52 -18 93 -40
42 -22 84 -40 94 -40 10 0 22 -4 25 -10 3 -5 26 -10 51 -10 24 0 44 -4 44 -9
0 -10 26 -9 36 2 17 17 7 54 -21 77 -16 13 -34 30 -38 37 -4 7 -19 13 -32 13
-14 0 -25 5 -25 10 0 6 -7 10 -15 10 -9 0 -50 10 -91 22 -55 16 -78 28 -84 43
-7 17 -18 21 -71 23 -35 2 -70 9 -79 16 -17 14 -45 27 -73 33 -11 2 -28 10
-39 17 -11 8 -27 12 -35 9 -7 -3 -22 2 -33 12 -16 15 -22 15 -35 5 -8 -7 -15
-8 -15 -2 0 10 -55 26 -78 23 -8 -1 -24 5 -37 13 -14 9 -34 16 -45 16 -19 0
-119 45 -130 59 -11 13 -58 31 -125 47 -38 9 -80 22 -92 30 -12 8 -29 14 -38
14 -22 0 -8 19 22 31 17 6 68 4 155 -6 71 -8 134 -13 138 -10 4 3 10 -2 13 -9
7 -17 72 -37 92 -29 8 3 21 -2 29 -10 8 -8 25 -13 38 -12 13 1 15 0 6 -2 -10
-2 -18 -8 -18 -13 0 -13 33 -17 53 -6 12 8 23 7 37 -2 11 -6 27 -12 35 -12 8
0 15 -4 15 -10 0 -5 10 -10 23 -10 17 0 19 -2 8 -9 -9 -6 -21 -5 -32 2 -20 12
-38 2 -23 -12 16 -16 64 -24 64 -11 0 9 16 10 63 5 34 -5 67 -8 74 -8 6 0 11
-13 11 -29 -2 -45 13 -52 108 -49 53 1 91 -2 99 -9 8 -7 18 -9 23 -6 5 3 22
-4 37 -16 17 -13 43 -22 66 -23 21 0 46 -9 57 -18 10 -9 27 -17 38 -17 10 -1
30 -7 44 -15 14 -8 34 -14 46 -15 27 0 64 40 64 69 0 18 4 22 17 17 25 -10 83
60 83 101 0 25 -7 35 -36 52 -19 12 -41 21 -47 21 -7 0 -22 11 -34 23 -12 13
-70 47 -130 76 -59 29 -119 58 -132 64 -13 7 -38 30 -55 52 -17 21 -62 70 -99
108 -66 68 -67 70 -50 89 33 36 50 40 116 23 34 -8 81 -17 105 -19 24 -2 51
-11 61 -20 25 -23 72 -20 104 8 23 20 42 25 126 30 88 7 102 10 132 35 26 22
33 36 33 63 0 43 -33 83 -62 74 -17 -6 -20 -2 -19 26 2 32 2 33 -48 36 -27 1
-57 6 -65 9 -8 4 -26 8 -40 9 -14 1 -34 5 -45 8 -11 3 -49 -4 -85 -15z m-355
-779 c3 -5 15 -10 26 -10 10 0 19 -4 19 -10 0 -5 -15 -10 -34 -10 -19 0 -38 5
-41 10 -7 12 2 30 15 30 5 0 12 -4 15 -10z m305 -39 c0 -12 -31 -43 -37 -37
-7 7 16 46 27 46 6 0 10 -4 10 -9z m-934 -36 c-16 -17 -36 -20 -36 -6 0 10 17
19 38 20 10 1 10 -3 -2 -14z m50 -29 c-8 -40 4 -52 33 -34 26 16 37 4 22 -25
-6 -12 -11 -31 -10 -42 4 -43 -1 -89 -10 -80 -15 17 -21 73 -8 79 7 2 5 5 -5
5 -12 1 -17 -7 -17 -26 1 -16 -4 -46 -9 -68 -7 -26 -8 -43 -1 -51 7 -8 7 -14
0 -18 -18 -11 -23 15 -17 75 5 39 3 59 -4 59 -19 0 -10 37 13 54 15 12 18 18
10 22 -14 6 -17 42 -7 68 11 28 16 17 10 -18z m-41 -51 l-6 -43 -22 21 -22 22
23 25 c12 14 23 32 23 40 1 10 3 9 6 -4 3 -10 2 -38 -2 -61z m-65 15 c0 -5 -4
-10 -10 -10 -5 0 -10 5 -10 10 0 6 5 10 10 10 6 0 10 -4 10 -10z m250 -28 c0
-20 -29 -64 -30 -45 0 6 -9 9 -20 6 -15 -4 -20 0 -20 14 0 26 19 43 47 43 16
0 23 -6 23 -18z m-424 -29 c-10 -10 -19 5 -10 18 6 11 8 11 12 0 2 -7 1 -15
-2 -18z m-134 -5 c-7 -7 -12 -8 -12 -2 0 14 12 26 19 19 2 -3 -1 -11 -7 -17z
m128 -22 c0 -2 -11 -6 -25 -8 -14 -3 -25 -1 -25 3 0 5 11 9 25 9 14 0 25 -2
25 -4z m-180 -126 c0 -5 -4 -10 -9 -10 -6 0 -13 5 -16 10 -3 6 1 10 9 10 9 0
16 -4 16 -10z m425 -30 c3 -5 -1 -10 -10 -10 -9 0 -13 5 -10 10 3 6 8 10 10
10 2 0 7 -4 10 -10z m-387 -12 c-5 -16 -48 -24 -48 -9 0 8 17 16 43 20 5 0 7
-5 5 -11z m228 -454 c-4 -9 -9 -15 -11 -12 -3 3 -3 13 1 22 4 9 9 15 11 12 3
-3 3 -13 -1 -22z m71 -56 c-3 -7 -5 -2 -5 12 0 14 2 19 5 13 2 -7 2 -19 0 -25z"/>
<path d="M5505 1640 c3 -5 14 -10 23 -10 15 0 15 2 2 10 -20 13 -33 13 -25 0z"/>
<path d="M5903 1398 c-2 -5 -15 -8 -29 -8 -19 0 -28 -8 -40 -35 -18 -44 -18
-75 1 -75 9 0 15 -9 15 -22 0 -17 3 -19 12 -10 18 18 30 14 23 -8 -5 -15 2
-25 29 -41 35 -20 47 -39 26 -39 -6 0 -5 -11 4 -28 12 -23 12 -35 1 -77 -12
-44 -14 -46 -14 -18 -1 45 -19 51 -26 9 -7 -37 0 -60 16 -51 5 4 9 -5 9 -19 0
-33 17 -42 26 -14 l6 21 13 -23 12 -22 6 23 c4 13 7 119 7 234 l0 211 -46 -1
c-25 0 -48 -3 -51 -7z m-44 -52 c9 -10 8 -16 -4 -26 -13 -11 -15 -8 -15 14 0
30 3 32 19 12z m112 -339 c-8 -8 -11 -5 -11 9 0 27 14 41 18 19 2 -9 -1 -22
-7 -28z"/>
<path d="M5690 1291 c0 -17 5 -33 10 -36 6 -4 10 8 10 29 0 20 -4 36 -10 36
-5 0 -10 -13 -10 -29z"/>
<path d="M5730 1260 c0 -36 3 -48 13 -44 19 7 21 94 2 94 -11 0 -15 -13 -15
-50z"/>
<path d="M5773 1225 c-7 -21 -7 -37 -2 -41 5 -3 9 -4 9 -2 0 2 4 18 9 35 13
44 -3 51 -16 8z"/>
<path d="M5682 1220 c0 -14 2 -19 5 -12 2 6 2 18 0 25 -3 6 -5 1 -5 -13z"/>
<path d="M5817 1233 c-10 -10 -8 -45 2 -39 11 7 21 46 12 46 -4 0 -11 -3 -14
-7z"/>
<path d="M16 1205 c-8 -21 3 -45 20 -45 9 0 14 11 14 30 0 32 -23 42 -34 15z"/>
<path d="M5846 1150 c-4 -38 -11 -72 -17 -75 -5 -4 -9 -18 -9 -33 0 -44 16
-12 34 67 18 83 20 111 7 111 -4 0 -12 -31 -15 -70z"/>
<path d="M1208 1188 c17 -8 26 -8 34 0 9 9 4 12 -22 11 -33 0 -34 -1 -12 -11z"/>
<path d="M5796 1123 c-4 -9 -2 -21 4 -27 7 -7 10 -2 10 17 0 31 -5 34 -14 10z"/>
<path d="M5878 1105 c-4 -22 -10 -52 -14 -67 -4 -17 -2 -28 4 -28 14 0 25 55
20 101 l-3 34 -7 -40z"/>
<path d="M770 525 c0 -8 2 -15 4 -15 2 0 11 -3 20 -6 23 -9 20 13 -4 26 -16 9
-20 8 -20 -5z"/>
<path d="M3843 480 c-6 -24 -39 -26 -67 -5 -25 19 -60 19 -76 0 -7 -8 -19 -15
-26 -15 -23 0 -16 -35 14 -63 16 -15 39 -27 54 -27 15 0 30 -4 33 -10 3 -5 14
-10 24 -10 10 0 30 -9 44 -20 26 -21 77 -27 77 -10 0 6 -5 10 -11 10 -6 0 -9
10 -7 23 4 32 39 33 62 1 17 -24 18 -27 2 -36 -9 -5 -16 -14 -16 -21 0 -17 62
-57 87 -57 11 0 26 -7 33 -15 7 -8 20 -15 29 -15 9 0 22 -5 28 -11 26 -26 234
-128 273 -134 3 0 32 -14 64 -30 49 -24 75 -30 150 -33 81 -4 89 -3 78 11 -9
10 -10 17 -2 22 6 3 8 11 4 16 -4 6 -11 6 -19 -1 -15 -13 -77 -10 -87 4 -3 5
-19 10 -34 12 -16 2 -33 9 -39 16 -5 8 -23 15 -39 16 -16 1 -37 9 -46 17 -9 8
-22 15 -29 15 -7 0 -10 7 -7 18 6 17 0 19 -58 17 -49 -1 -63 2 -59 12 3 7 20
13 38 13 29 0 34 4 40 30 4 17 13 30 22 30 8 0 13 5 11 11 -4 12 -73 39 -101
39 -9 0 -25 4 -35 10 -20 11 -55 26 -175 74 -48 20 -105 47 -127 61 -22 14
-44 25 -49 25 -5 0 -14 7 -21 15 -17 21 -31 19 -37 -5z m-105 -42 c-6 -18 -28
-21 -28 -4 0 9 7 16 16 16 9 0 14 -5 12 -12z m79 -27 c0 -11 -6 -17 -14 -14
-14 6 -17 16 -6 26 12 13 22 7 20 -12z m63 -13 c0 -5 -7 -8 -15 -8 -15 0 -20
21 -8 33 7 7 23 -11 23 -25z m181 -91 c-5 -12 -15 -23 -24 -25 -15 -3 -15 0
-1 27 17 35 38 33 25 -2z m99 -42 c0 -8 -4 -15 -9 -15 -13 0 -22 16 -14 24 11
11 23 6 23 -9z"/>
<path d="M912 473 c-8 -15 -9 -24 -1 -28 15 -10 21 0 17 27 l-3 23 -13 -22z"/>
<path d="M957 450 c-3 -11 -1 -20 4 -20 5 0 9 9 9 20 0 11 -2 20 -4 20 -2 0
-6 -9 -9 -20z"/>
<path d="M986 416 c7 -18 52 -27 58 -10 7 17 -3 24 -35 24 -20 0 -27 -4 -23
-14z"/>
<path d="M1077 413 c-10 -10 -8 -43 2 -43 9 0 21 24 21 41 0 11 -14 12 -23 2z"/>
<path d="M1185 331 c-3 -5 -1 -12 4 -15 5 -4 12 -2 16 4 4 7 12 7 26 0 11 -6
19 -7 19 -2 0 6 -10 12 -22 16 -31 8 -36 8 -43 -3z"/>
<path d="M4415 251 c-3 -6 1 -11 9 -11 9 0 16 -4 16 -10 0 -5 5 -10 10 -10 6
0 29 -12 51 -26 32 -20 38 -28 29 -39 -26 -32 16 -86 51 -64 18 11 59 11 59 0
0 -5 11 -11 25 -13 13 -3 22 -2 20 3 -11 17 37 -5 50 -24 19 -28 19 -51 0 -44
-8 4 -17 2 -20 -3 -4 -6 17 -10 49 -10 42 0 56 4 56 14 0 23 20 30 34 11 11
-15 37 -18 169 -23 113 -3 160 -2 171 7 10 8 16 9 21 1 4 -6 93 -10 257 -10
138 0 248 3 244 7 -4 4 -49 8 -99 9 -171 2 -485 59 -568 104 -9 4 -38 11 -65
15 -27 4 -69 13 -94 20 -25 8 -83 21 -130 30 -47 9 -112 22 -145 30 -33 7 -82
18 -110 24 -27 5 -57 12 -66 16 -10 3 -20 2 -24 -4z"/>
<path d="M3425 240 c-3 -5 -1 -10 4 -10 6 0 11 5 11 10 0 6 -2 10 -4 10 -3 0
-8 -4 -11 -10z"/>
<path d="M3482 221 c-8 -4 -26 -7 -40 -5 -50 5 -109 -76 -67 -92 19 -8 19 -31
0 -51 -12 -12 -22 -13 -45 -5 -34 12 -42 5 -45 -40 l-2 -28 99 0 c80 0 98 3
98 15 0 8 9 15 20 15 13 0 18 -5 14 -15 -5 -13 14 -15 135 -15 l141 0 -12 25
c-7 16 -18 24 -32 22 -17 -2 -22 5 -26 33 -3 23 -8 31 -13 23 -14 -22 -47 -15
-59 12 -12 26 -38 35 -38 13 0 -8 -5 -7 -16 4 -13 13 -14 19 -3 36 16 26 7 37
-19 23 -34 -18 -52 -13 -52 14 0 25 -14 31 -38 16z m-36 -153 c4 -6 -1 -17
-12 -25 -15 -11 -20 -11 -32 1 -8 8 -11 19 -8 25 9 14 43 14 52 -1z"/>
<path d="M4408 223 c7 -3 16 -2 19 1 4 3 -2 6 -13 5 -11 0 -14 -3 -6 -6z"/>
<path d="M1229 139 c-19 -28 -39 -60 -45 -70 -6 -11 -22 -31 -35 -45 l-23 -25
99 3 100 3 3 44 c3 47 -32 140 -54 141 -6 0 -26 -23 -45 -51z"/>
<path d="M3726 153 c-12 -12 -6 -33 9 -33 8 0 15 6 15 14 0 17 -14 28 -24 19z"/>
<path d="M3800 100 c-8 -5 -11 -12 -8 -16 10 -9 38 3 38 16 0 12 -10 13 -30 0z"/>
<path d="M5547 93 c-4 -3 -7 -15 -7 -25 0 -22 38 -24 66 -3 16 13 17 16 4 25
-17 11 -53 13 -63 3z"/>
<path d="M3867 65 c-4 -8 -2 -17 3 -20 6 -4 10 3 10 14 0 25 -6 27 -13 6z"/>
<path d="M3935 10 c-3 -5 1 -10 9 -10 9 0 16 5 16 10 0 6 -4 10 -9 10 -6 0
-13 -4 -16 -10z"/>
</g>
</svg>
